<?xml version="1.0" ?><!DOCTYPE svg  PUBLIC '-//W3C//DTD SVG 1.1//EN'  'http://www.w3.org/Graphics/SVG/1.1/DTD/svg11.dtd'><svg enable-background="new 0 0 24 24" height="24px" id="Layer_1" version="1.1" viewBox="0 0 24 24" width="24px" xml:space="preserve" xmlns="http://www.w3.org/2000/svg" xmlns:xlink="http://www.w3.org/1999/xlink"><g><g><path d="M12,1.8c-3,0-5.4,2.4-5.4,5.4S9,12.6,12,12.6s5.4-2.4,5.4-5.4S15,1.8,12,1.8z M12,9.6c-1.3,0-2.4-1.1-2.4-2.4    s1.1-2.4,2.4-2.4s2.4,1.1,2.4,2.4S13.3,9.6,12,9.6z"/></g><g><path d="M12,18.6c0.1,0,0.3,0,0.4,0.1l3,3c0.6,0.6,1.6,0.6,2.1,0c0.6-0.6,0.6-1.5,0-2.1l-1.8-1.8c-0.1-0.1-0.2-0.3-0.1-0.5    c0-0.2,0.1-0.3,0.3-0.4c1.3-0.5,2.5-1.3,3.5-2.3c0.3-0.3,0.4-0.7,0.4-1.1s-0.2-0.8-0.4-1.1c-0.6-0.6-1.6-0.6-2.1,0    C15.8,14,14,14.8,12,14.8S8.2,14,6.8,12.6c-0.6-0.6-1.6-0.6-2.1,0c-0.6,0.6-0.6,1.5,0,2.1c1,1,2.2,1.8,3.5,2.3    c0.2,0.1,0.3,0.2,0.3,0.4c0,0.2,0,0.3-0.1,0.5l-1.8,1.8c-0.6,0.6-0.6,1.5,0,2.1c0.6,0.6,1.6,0.6,2.1,0l3-3    C11.7,18.7,11.9,18.6,12,18.6z"/></g></g></svg>