<svg viewBox="0 0 512 512">
  <path d="M259.6 203c-70.7 0-108.3 45.5-108.3 95.1 0 23 12.8 51.7 33.3 60.8 3.1 1.4 4.8.8 5.5-2.1.6-2.2 3.3-12.8 4.6-17.8.4-1.6.2-3-1.1-4.5-6.8-7.9-12.2-22.3-12.2-35.8 0-34.6 27.4-68.2 74-68.2 40.3 0 68.5 26.3 68.5 63.9 0 42.5-22.4 71.9-51.5 71.9-16.1 0-28.1-12.7-24.3-28.4 4.6-18.7 13.6-38.8 13.6-52.3 0-12.1-6.8-22.1-20.7-22.1-16.4 0-29.7 16.3-29.7 38.2 0 13.9 4.9 23.3 4.9 23.3S200 390.8 197 403.1c-5.1 20.8.7 54.5 1.2 57.4.3 1.6 2.1 2.1 3.1.8 1.6-2.1 21.2-30.2 26.7-50.5 2-7.4 10.2-37.4 10.2-37.4 5.4 9.8 21 18 37.6 18 49.4 0 85.1-43.6 85.1-97.7-.2-51.9-44.4-90.7-101.3-90.7"/>
</svg>
