<svg xmlns="http://www.w3.org/2000/svg" xmlns:xlink="http://www.w3.org/1999/xlink"><defs>
<symbol id="icon-google-plus" viewBox="0 0 32 32">
<title>google-plus</title>
<path d="M10.181 14.294v3.494h5.775c-0.231 1.5-1.744 4.394-5.775 4.394-3.475 0-6.313-2.881-6.313-6.431s2.838-6.431 6.313-6.431c1.981 0 3.3 0.844 4.056 1.569l2.762-2.662c-1.775-1.656-4.075-2.662-6.819-2.662-5.631 0.006-10.181 4.556-10.181 10.188s4.55 10.181 10.181 10.181c5.875 0 9.775-4.131 9.775-9.95 0-0.669-0.075-1.181-0.163-1.688h-9.613z"/>
<path d="M32 14h-3v-3h-3v3h-3v3h3v3h3v-3h3z"/>
</symbol>
<symbol id="icon-facebook" viewBox="0 0 32 32">
<title>facebook</title>
<path d="M19 6h5v-6h-5c-3.86 0-7 3.14-7 7v3h-4v6h4v16h6v-16h5l1-6h-6v-3c0-0.542 0.458-1 1-1z"/>
</symbol>
<symbol id="icon-instagram" viewBox="0 0 32 32">
<title>instagram</title>
<path d="M16 2.881c4.275 0 4.781 0.019 6.462 0.094 1.563 0.069 2.406 0.331 2.969 0.55 0.744 0.288 1.281 0.638 1.837 1.194 0.563 0.563 0.906 1.094 1.2 1.838 0.219 0.563 0.481 1.412 0.55 2.969 0.075 1.688 0.094 2.194 0.094 6.463s-0.019 4.781-0.094 6.463c-0.069 1.563-0.331 2.406-0.55 2.969-0.288 0.744-0.637 1.281-1.194 1.837-0.563 0.563-1.094 0.906-1.837 1.2-0.563 0.219-1.413 0.481-2.969 0.55-1.688 0.075-2.194 0.094-6.463 0.094s-4.781-0.019-6.463-0.094c-1.563-0.069-2.406-0.331-2.969-0.55-0.744-0.288-1.281-0.637-1.838-1.194-0.563-0.563-0.906-1.094-1.2-1.837-0.219-0.563-0.481-1.413-0.55-2.969-0.075-1.688-0.094-2.194-0.094-6.463s0.019-4.781 0.094-6.463c0.069-1.563 0.331-2.406 0.55-2.969 0.288-0.744 0.638-1.281 1.194-1.838 0.563-0.563 1.094-0.906 1.838-1.2 0.563-0.219 1.412-0.481 2.969-0.55 1.681-0.075 2.188-0.094 6.463-0.094zM16 0c-4.344 0-4.887 0.019-6.594 0.094-1.7 0.075-2.869 0.35-3.881 0.744-1.056 0.412-1.95 0.956-2.837 1.85-0.894 0.888-1.438 1.781-1.85 2.831-0.394 1.019-0.669 2.181-0.744 3.881-0.075 1.713-0.094 2.256-0.094 6.6s0.019 4.887 0.094 6.594c0.075 1.7 0.35 2.869 0.744 3.881 0.413 1.056 0.956 1.95 1.85 2.837 0.887 0.887 1.781 1.438 2.831 1.844 1.019 0.394 2.181 0.669 3.881 0.744 1.706 0.075 2.25 0.094 6.594 0.094s4.888-0.019 6.594-0.094c1.7-0.075 2.869-0.35 3.881-0.744 1.050-0.406 1.944-0.956 2.831-1.844s1.438-1.781 1.844-2.831c0.394-1.019 0.669-2.181 0.744-3.881 0.075-1.706 0.094-2.25 0.094-6.594s-0.019-4.887-0.094-6.594c-0.075-1.7-0.35-2.869-0.744-3.881-0.394-1.063-0.938-1.956-1.831-2.844-0.887-0.887-1.781-1.438-2.831-1.844-1.019-0.394-2.181-0.669-3.881-0.744-1.712-0.081-2.256-0.1-6.6-0.1v0z"/>
<path d="M16 7.781c-4.537 0-8.219 3.681-8.219 8.219s3.681 8.219 8.219 8.219 8.219-3.681 8.219-8.219c0-4.537-3.681-8.219-8.219-8.219zM16 21.331c-2.944 0-5.331-2.387-5.331-5.331s2.387-5.331 5.331-5.331c2.944 0 5.331 2.387 5.331 5.331s-2.387 5.331-5.331 5.331z"/>
<path d="M26.462 7.456c0 1.060-0.859 1.919-1.919 1.919s-1.919-0.859-1.919-1.919c0-1.060 0.859-1.919 1.919-1.919s1.919 0.859 1.919 1.919z"/>
</symbol>
<symbol id="icon-twitter" viewBox="0 0 32 32">
<title>twitter</title>
<path d="M32 7.075c-1.175 0.525-2.444 0.875-3.769 1.031 1.356-0.813 2.394-2.1 2.887-3.631-1.269 0.75-2.675 1.3-4.169 1.594-1.2-1.275-2.906-2.069-4.794-2.069-3.625 0-6.563 2.938-6.563 6.563 0 0.512 0.056 1.012 0.169 1.494-5.456-0.275-10.294-2.888-13.531-6.862-0.563 0.969-0.887 2.1-0.887 3.3 0 2.275 1.156 4.287 2.919 5.463-1.075-0.031-2.087-0.331-2.975-0.819 0 0.025 0 0.056 0 0.081 0 3.181 2.263 5.838 5.269 6.437-0.55 0.15-1.131 0.231-1.731 0.231-0.425 0-0.831-0.044-1.237-0.119 0.838 2.606 3.263 4.506 6.131 4.563-2.25 1.762-5.075 2.813-8.156 2.813-0.531 0-1.050-0.031-1.569-0.094 2.913 1.869 6.362 2.95 10.069 2.95 12.075 0 18.681-10.006 18.681-18.681 0-0.287-0.006-0.569-0.019-0.85 1.281-0.919 2.394-2.075 3.275-3.394z"/>
</symbol>
<symbol id="icon-vimeo" viewBox="0 0 32 32">
<title>vimeo</title>
<path d="M31.988 8.563c-0.144 3.113-2.319 7.381-6.525 12.794-4.35 5.65-8.031 8.481-11.044 8.481-1.863 0-3.444-1.719-4.731-5.163-0.863-3.156-1.719-6.313-2.581-9.469-0.956-3.444-1.981-5.162-3.081-5.162-0.237 0-1.075 0.506-2.513 1.506l-1.506-1.938c1.581-1.387 3.138-2.775 4.669-4.162 2.106-1.819 3.688-2.775 4.744-2.875 2.487-0.237 4.025 1.463 4.6 5.106 0.619 3.931 1.050 6.375 1.294 7.331 0.719 3.263 1.506 4.894 2.369 4.894 0.669 0 1.675-1.056 3.019-3.175 1.337-2.113 2.056-3.725 2.156-4.831 0.194-1.825-0.525-2.744-2.156-2.744-0.769 0-1.556 0.175-2.369 0.525 1.575-5.15 4.575-7.65 9.012-7.506 3.281 0.087 4.831 2.219 4.644 6.388z"/>
</symbol>
<symbol id="icon-behance" viewBox="0 0 32 32">
<title>behance</title>
<path d="M9.281 6.412c0.944 0 1.794 0.081 2.569 0.25 0.775 0.162 1.431 0.438 1.988 0.813 0.55 0.375 0.975 0.875 1.287 1.5 0.3 0.619 0.45 1.394 0.45 2.313 0 0.994-0.225 1.819-0.675 2.481-0.456 0.662-1.119 1.2-2.006 1.625 1.213 0.35 2.106 0.962 2.706 1.831 0.6 0.875 0.887 1.925 0.887 3.163 0 1-0.194 1.856-0.575 2.581-0.387 0.731-0.912 1.325-1.556 1.781-0.65 0.462-1.4 0.8-2.237 1.019-0.831 0.219-1.688 0.331-2.575 0.331h-9.544v-19.688h9.281zM8.719 14.363c0.769 0 1.406-0.181 1.906-0.55 0.5-0.363 0.738-0.963 0.738-1.787 0-0.456-0.081-0.838-0.244-1.131-0.169-0.294-0.387-0.525-0.669-0.688-0.275-0.169-0.588-0.281-0.956-0.344-0.356-0.069-0.731-0.1-1.113-0.1h-4.050v4.6h4.388zM8.956 22.744c0.425 0 0.831-0.038 1.213-0.125 0.387-0.087 0.731-0.219 1.019-0.419 0.287-0.194 0.531-0.45 0.706-0.788 0.175-0.331 0.256-0.756 0.256-1.275 0-1.012-0.287-1.738-0.856-2.175-0.569-0.431-1.325-0.644-2.262-0.644h-4.7v5.419h4.625z"/>
<path d="M22.663 22.675c0.587 0.575 1.431 0.863 2.531 0.863 0.788 0 1.475-0.2 2.044-0.6s0.913-0.825 1.044-1.262h3.45c-0.556 1.719-1.394 2.938-2.544 3.675-1.131 0.738-2.519 1.113-4.125 1.113-1.125 0-2.131-0.181-3.038-0.538-0.906-0.363-1.663-0.869-2.3-1.531-0.619-0.663-1.106-1.45-1.45-2.375-0.337-0.919-0.512-1.938-0.512-3.038 0-1.069 0.175-2.063 0.525-2.981 0.356-0.925 0.844-1.719 1.494-2.387s1.413-1.2 2.313-1.588c0.894-0.387 1.881-0.581 2.975-0.581 1.206 0 2.262 0.231 3.169 0.706 0.9 0.469 1.644 1.1 2.225 1.887s0.994 1.694 1.25 2.706c0.256 1.012 0.344 2.069 0.275 3.175h-10.294c0 1.119 0.375 2.188 0.969 2.756zM27.156 15.188c-0.462-0.512-1.256-0.794-2.212-0.794-0.625 0-1.144 0.106-1.556 0.319-0.406 0.213-0.738 0.475-0.994 0.787-0.25 0.313-0.425 0.65-0.525 1.006-0.1 0.344-0.163 0.663-0.181 0.938h6.375c-0.094-1-0.438-1.738-0.906-2.256z"/>
<path d="M20.887 8h7.981v1.944h-7.981v-1.944z"/>
</symbol>
<symbol id="icon-linkedin2" viewBox="0 0 32 32">
<title>linkedin2</title>
<path d="M12 12h5.535v2.837h0.079c0.77-1.381 2.655-2.837 5.464-2.837 5.842 0 6.922 3.637 6.922 8.367v9.633h-5.769v-8.54c0-2.037-0.042-4.657-3.001-4.657-3.005 0-3.463 2.218-3.463 4.509v8.688h-5.767v-18z"/>
<path d="M2 12h6v18h-6v-18z"/>
<path d="M8 7c0 1.657-1.343 3-3 3s-3-1.343-3-3c0-1.657 1.343-3 3-3s3 1.343 3 3z"/>
</symbol>
<symbol id="icon-pinterest2" viewBox="0 0 32 32">
<title>pinterest2</title>
<path d="M16 0c-8.825 0-16 7.175-16 16s7.175 16 16 16 16-7.175 16-16-7.175-16-16-16zM16 29.863c-1.431 0-2.806-0.219-4.106-0.619 0.563-0.919 1.412-2.431 1.725-3.631 0.169-0.65 0.863-3.294 0.863-3.294 0.45 0.863 1.775 1.594 3.175 1.594 4.181 0 7.194-3.844 7.194-8.625 0-4.581-3.738-8.006-8.544-8.006-5.981 0-9.156 4.019-9.156 8.387 0 2.031 1.081 4.563 2.813 5.369 0.262 0.125 0.4 0.069 0.463-0.188 0.044-0.194 0.281-1.131 0.387-1.575 0.031-0.137 0.019-0.262-0.094-0.4-0.575-0.694-1.031-1.975-1.031-3.162 0-3.056 2.313-6.019 6.256-6.019 3.406 0 5.788 2.319 5.788 5.637 0 3.75-1.894 6.35-4.356 6.35-1.363 0-2.381-1.125-2.050-2.506 0.394-1.65 1.15-3.425 1.15-4.613 0-1.063-0.569-1.95-1.756-1.95-1.394 0-2.506 1.438-2.506 3.369 0 1.225 0.412 2.056 0.412 2.056s-1.375 5.806-1.625 6.887c-0.281 1.2-0.169 2.881-0.050 3.975-5.156-2.012-8.813-7.025-8.813-12.9 0-7.656 6.206-13.863 13.862-13.863s13.863 6.206 13.863 13.863c0 7.656-6.206 13.863-13.863 13.863z"/>
</symbol>
</defs><symbol id="icons-social-networks">

</symbol><symbol id="icon_Behance" viewBox="0 0 512 512"><g id="XMLID_97_"><path d="M169.4,203c12.1,0,23.1,1,33.1,3.2c9.9,2.1,18.4,5.6,25.6,10.5c7.1,4.8,12.6,11.3,16.5,19.3   s5.8,18,5.8,29.8c0,12.8-2.9,23.4-8.7,32c-5.8,8.5-14.4,15.5-25.9,20.9c15.6,4.5,27.2,12.4,34.8,23.6c7.7,11.3,11.5,24.8,11.5,40.7   c0,12.9-2.5,23.9-7.4,33.2c-5,9.4-11.7,17.1-20.1,23c-8.4,5.9-18,10.3-28.8,13.2c-10.7,2.8-21.8,4.3-33.1,4.3H49.9V203H169.4z    M162.2,305.4c9.9,0,18.1-2.3,24.6-7.1c6.4-4.7,9.5-12.4,9.5-23.1c0-5.9-1-10.8-3.1-14.6c-2.2-3.8-5-6.7-8.6-8.8   c-3.6-2.2-7.6-3.6-12.3-4.5c-4.6-0.9-9.4-1.3-14.4-1.3h-52.2v59.3h56.5V305.4z M165.3,413.4c5.5,0,10.7-0.5,15.7-1.6   s9.4-2.8,13.2-5.4c3.7-2.5,6.8-5.8,9.1-10.1c2.3-4.3,3.3-9.8,3.3-16.4c0-13.1-3.7-22.3-11-28c-7.3-5.6-17.1-8.3-29.1-8.3h-60.7   v69.8L165.3,413.4L165.3,413.4z" id="XMLID_102_"/><path d="M341.8,412.5c7.6,7.4,18.5,11.1,32.6,11.1c10.2,0,19-2.6,26.3-7.7s11.8-10.6,13.5-16.3h44.4   c-7.1,22.1-18,37.9-32.7,47.4c-14.6,9.5-32.4,14.3-53.2,14.3c-14.5,0-27.5-2.3-39.2-7s-21.4-11.2-29.6-19.7   c-8-8.6-14.2-18.7-18.6-30.6c-4.4-11.8-6.6-24.9-6.6-39.1c0-13.7,2.3-26.6,6.8-38.4c4.6-11.9,10.9-22.2,19.2-30.8   c8.3-8.7,18.2-15.5,29.8-20.5c11.5-5,24.2-7.5,38.3-7.5c15.5,0,29.1,3,40.8,9.1c11.6,6,21.1,14.1,28.6,24.3   c7.5,10.2,12.8,21.8,16.1,34.8c3.3,13,4.5,26.6,3.5,40.9H329.3C329.3,391.4,334.2,405.2,341.8,412.5z M399.7,316.1   c-6-6.6-16.1-10.2-28.5-10.2c-8.1,0-14.7,1.4-20.1,4.1c-5.2,2.7-9.5,6.1-12.8,10.1c-3.3,4.1-5.5,8.4-6.8,12.9s-2.1,8.5-2.3,12.1   h82.1C410.2,332.3,405.8,322.8,399.7,316.1z" id="XMLID_99_"/><rect height="25" id="XMLID_98_" width="102.8" x="319" y="220"/></g></symbol><symbol id="icon_Facebook" viewBox="0 0 512 512">
<path d="M276.1,462V343.9h39.7l5.9-46h-45.6v-29.4c0-13.3,3.7-22.4,22.8-22.4h24.4v-41.2c-4.2-0.6-18.7-1.8-35.5-1.8  c-35.2,0-59.2,21.5-59.2,60.9v34h-39.8v46h39.8v118H276.1z" id="f"/>
</symbol><symbol id="icon_Google_Plus" viewBox="0 0 512 512"><g id="XMLID_246_"><g id="XMLID_30_"><path d="M181.6,306.9v51.3c0,0,49.7-0.1,70-0.1c-11,33.2-28,51.3-70,51.3c-42.5,0-75.6-34.4-75.6-76.9    s33.2-76.9,75.6-76.9c22.5,0,37,7.9,50.3,18.9c10.7-10.7,9.8-12.2,36.9-37.8c-23-20.9-53.6-33.7-87.1-33.7    c-71.5,0-129.5,58-129.5,129.5S110.2,462,181.7,462c106.9,0,133-93.1,124.3-155.1C280.7,306.9,181.6,306.9,181.6,306.9z     M415,309.4v-44.9h-32v44.9h-46.1v32H383v46.1h32v-46.1h44.9v-32H415z" id="XMLID_31_"/></g></g></symbol><symbol id="icon_Instagram" viewBox="0 0 512 512"><g id="XMLID_138_"><path d="M378.7,247.7c-3.3-8.5-7.7-15.7-14.9-22.9c-7.2-7.2-14.4-11.6-22.9-14.9c-8.2-3.2-17.7-5.4-31.4-6   c-13.8-0.6-18.2-0.8-53.4-0.8s-39.6,0.1-53.4,0.8c-13.8,0.6-23.2,2.8-31.4,6c-8.5,3.3-15.7,7.7-22.9,14.9s-11.6,14.4-14.9,22.9   c-3.2,8.2-5.4,17.7-6,31.4c-0.6,13.8-0.8,18.2-0.8,53.4s0.1,39.6,0.8,53.4c0.6,13.8,2.8,23.2,6,31.4c3.3,8.5,7.7,15.7,14.9,22.9   c7.2,7.2,14.4,11.6,22.9,14.9c8.2,3.2,17.7,5.4,31.4,6c13.8,0.6,18.2,0.8,53.4,0.8s39.6-0.1,53.4-0.8c13.8-0.6,23.2-2.8,31.4-6   c8.5-3.3,15.7-7.7,22.9-14.9c7.2-7.2,11.6-14.4,14.9-22.9c3.2-8.2,5.4-17.7,6-31.4c0.6-13.8,0.8-18.2,0.8-53.4s-0.1-39.6-0.8-53.4   C384.1,265.3,381.9,255.9,378.7,247.7z M361.4,384.8c-0.6,12.6-2.7,19.5-4.5,24c-2.3,6-5.2,10.4-9.7,14.9s-8.8,7.3-14.9,9.7   c-4.6,1.8-11.4,3.9-24,4.5c-13.7,0.6-17.7,0.8-52.3,0.8s-38.7-0.1-52.3-0.8c-12.6-0.6-19.5-2.7-24-4.5c-6-2.3-10.4-5.2-14.9-9.7   s-7.3-8.8-9.7-14.9c-1.8-4.6-3.9-11.4-4.5-24c-0.6-13.7-0.8-17.8-0.8-52.3s0.1-38.7,0.8-52.3c0.6-12.6,2.7-19.5,4.5-24   c2.3-6,5.2-10.4,9.7-14.9s8.8-7.3,14.9-9.7c4.6-1.8,11.4-3.9,24-4.5c13.7-0.6,17.8-0.8,52.3-0.8s38.7,0.1,52.3,0.8   c12.6,0.6,19.5,2.7,24,4.5c6,2.3,10.4,5.2,14.9,9.7s7.3,8.8,9.7,14.9c1.8,4.6,3.9,11.4,4.5,24c0.6,13.7,0.8,17.8,0.8,52.3   S362,371.2,361.4,384.8z" id="XMLID_142_"/><path d="M256,266c-36.7,0-66.5,29.8-66.5,66.5S219.3,399,256,399s66.5-29.8,66.5-66.5S292.7,266,256,266z    M256,375.7c-23.8,0-43.2-19.3-43.2-43.2c0-23.8,19.3-43.2,43.2-43.2s43.2,19.3,43.2,43.2C299.2,356.3,279.8,375.7,256,375.7z" id="XMLID_145_"/><circle cx="325.1" cy="263.4" id="XMLID_143_" r="15.5"/></g></symbol><symbol id="icon_Linkedin" viewBox="0 0 512 512"><g id="XMLID_184_"><path d="M130.5,289h53.8v173h-53.8V289z M157.5,203c17.2,0,31.2,14,31.2,31.2s-14,31.2-31.2,31.2   c-17.3,0-31.2-14-31.2-31.2S140.2,203,157.5,203" id="XMLID_195_"/><path d="M218.1,289h51.5v23.7h0.7c7.2-13.6,24.7-27.9,50.9-27.9c54.4,0,64.5,35.8,64.5,82.4V462H332v-84.1   c0-20.1-0.3-45.9-27.9-45.9c-28,0-32.2,21.9-32.2,44.4V462h-53.7L218.1,289L218.1,289z" id="XMLID_192_"/></g></symbol><symbol id="icon_Pinterest" viewBox="0 0 512 512"><path d="M259.6,203c-70.7,0-108.3,45.5-108.3,95.1c0,23,12.8,51.7,33.3,60.8c3.1,1.4,4.8,0.8,5.5-2.1  c0.6-2.2,3.3-12.8,4.6-17.8c0.4-1.6,0.2-3-1.1-4.5c-6.8-7.9-12.2-22.3-12.2-35.8c0-34.6,27.4-68.2,74-68.2  c40.3,0,68.5,26.3,68.5,63.9c0,42.5-22.4,71.9-51.5,71.9c-16.1,0-28.1-12.7-24.3-28.4c4.6-18.7,13.6-38.8,13.6-52.3  c0-12.1-6.8-22.1-20.7-22.1c-16.4,0-29.7,16.3-29.7,38.2c0,13.9,4.9,23.3,4.9,23.3S200,390.8,197,403.1c-5.1,20.8,0.7,54.5,1.2,57.4  c0.3,1.6,2.1,2.1,3.1,0.8c1.6-2.1,21.2-30.2,26.7-50.5c2-7.4,10.2-37.4,10.2-37.4c5.4,9.8,21,18,37.6,18c49.4,0,85.1-43.6,85.1-97.7  C360.7,241.8,316.5,203,259.6,203" id="XMLID_215_"/></symbol><symbol id="icon_Twitter" viewBox="0 0 512 512"><path d="M196.9,462C317.2,462,383,362.3,383,275.9c0-2.8,0-5.6-0.2-8.5c12.8-9.3,23.8-20.7,32.6-33.9  c-11.9,5.3-24.6,8.8-37.6,10.3c13.7-8.2,23.9-21,28.8-36.2c-12.8,7.6-26.9,13-41.5,15.9c-24.8-26.3-66.2-27.6-92.5-2.8  c-17,16-24.2,39.8-18.9,62.5c-52.6-2.6-101.6-27.5-134.8-68.3c-17.4,29.9-8.5,68.1,20.2,87.3c-10.4-0.3-20.6-3.1-29.7-8.2  c0,0.3,0,0.5,0,0.8c0,31.1,22,57.9,52.5,64.1c-9.6,2.6-19.7,3-29.5,1.1c8.6,26.6,33.1,44.9,61.1,45.4  c-23.2,18.2-51.8,28.1-81.2,28.1c-5.2,0-10.4-0.3-15.6-0.9C126.5,451.8,161.3,462,196.9,462" id="XMLID_22_"/></symbol><symbol id="icon_Vimeo" viewBox="0 0 512 512"><g id="XMLID_231_"><path d="M405.2,262.8c-1.3,29.1-21.6,68.9-60.9,119.4c-40.6,52.8-75,79.2-103.1,79.2c-17.4,0-32.2-16.1-44.2-48.2   c-8-29.5-16.1-58.9-24.1-88.4c-8.9-32.1-18.5-48.2-28.8-48.2c-2.2,0-10.1,4.7-23.4,14.1l-14-18.1c14.7-12.9,29.3-25.9,43.6-38.9   c19.7-17,34.4-25.9,44.3-26.8c23.2-2.2,37.5,13.7,42.9,47.7c5.8,36.7,9.8,59.5,12.1,68.4c6.7,30.4,14.1,45.7,22.1,45.7   c6.2,0,15.6-9.9,28.2-29.6c12.5-19.7,19.2-34.8,20.1-45.1c1.8-17-4.9-25.6-20.1-25.6c-7.2,0-14.5,1.6-22.1,4.9   c14.7-48.1,42.7-71.4,84.1-70.1C392.5,203.9,407,223.8,405.2,262.8z" id="XMLID_232_"/></g></symbol></svg>